<svg
  width="90"
  height="30"
  viewBox="0 0 3022 1024"
  fill="none"
  xmlns="http://www.w3.org/2000/svg"
>
  <title>Remind logo</title>

  <g clip-path="url(#clip0_3_768)">
    <path
      d="M12.3152 -0.00298673C142.099 -2.35658 215.706 51.4936 230.484 161.736C287.134 53.9413 372.204 -0.00298673 456.042 -0.00298673C775.196 -0.00298673 686.432 456.782 361.31 538.875C422.697 684.704 628.55 919.874 871.539 914.979L857.992 1024C645.981 1027.67 371.162 834.109 242.231 551.208L201.591 547.536L148.541 793.722H23.3989L120.784 358.967C131.435 316.857 137.626 273.756 139.257 230.366C139.257 147.049 102.311 100.542 0 102.99L12.3152 -0.00298673ZM266.198 454.428C506.535 454.428 635.655 105.438 458.505 105.438C346.342 105.438 257.578 291.842 219.401 449.533C234.857 452.31 250.499 453.946 266.198 454.428V454.428ZM838.099 316.037C934.157 316.037 994.691 365.086 994.691 455.652C994.691 595.361 836.962 655.331 708.789 614.943C730.956 706.733 838.193 712.853 972.524 684.704L961.44 783.931C757.86 829.214 595.299 769.245 595.299 572.014C595.299 436.07 701.021 316.037 838.099 316.037V316.037ZM883.665 454.428C883.665 380.996 729.63 399.354 711.157 535.298C789.975 558.551 883.665 532.85 883.665 454.428V454.428ZM1120.5 328.276H1232.47L1220.15 387.116C1255.87 333.171 1295.28 316.037 1340.84 316.037C1384.04 316.037 1422.22 341.832 1438.23 392.011C1478.96 336.843 1526.99 316.037 1576.25 316.037C1650.24 316.037 1706.89 380.996 1679.8 507.149L1619.93 787.603H1501.13L1560.24 520.611C1577.49 444.637 1563.94 414.041 1531.82 414.041C1496.11 414.041 1459.07 456.876 1422.12 586.7L1379.02 787.603H1260.8L1319.91 520.611C1337.15 444.637 1323.6 414.041 1291.49 414.041C1257.01 414.041 1210.11 487.567 1183.02 580.581L1137.45 787.697H1020.46L1120.5 328.276ZM1826.63 328.276H1944.95L1843.68 787.603H1726.69L1826.63 328.276ZM1904.12 96.8708C1918.45 97.3554 1932.32 102.037 1943.98 110.329C1955.64 118.62 1964.58 130.151 1969.67 143.473C1974.76 156.796 1975.77 171.315 1972.58 185.208C1969.39 199.101 1962.15 211.748 1951.75 221.56C1941.35 231.373 1928.27 237.913 1914.14 240.36C1900.02 242.807 1885.48 241.051 1872.35 235.313C1859.23 229.574 1848.1 220.11 1840.37 208.108C1832.64 196.107 1828.65 182.103 1828.91 167.855C1829.04 158.251 1831.1 148.769 1834.98 139.969C1838.85 131.17 1844.46 123.229 1851.47 116.614C1858.47 110 1866.74 104.846 1875.79 101.455C1884.83 98.0645 1894.47 96.5058 1904.12 96.8708V96.8708ZM2064.32 328.276H2176.48L2156.78 420.16C2198.65 339.385 2244.31 316.037 2299.73 316.037C2378.64 316.037 2432.83 380.996 2408.2 507.149L2353.91 787.603H2236.82L2289.87 520.611C2304.65 444.637 2292.53 414.229 2260.32 414.229C2218.35 414.229 2165.59 475.516 2127.69 580.769L2082.03 787.885H1964.47L2064.32 328.276ZM2699.88 316.037C2720.64 315.213 2741.22 320.171 2759.3 330.351C2777.37 340.532 2792.23 355.529 2802.19 373.653L2874.94 41.7026H2985.78L2875.32 564.859C2856.37 654.295 2894.27 700.802 3021.97 700.802L3002.26 800.218C2896.26 800.218 2822.27 781.86 2790.25 706.074C2763.16 760.018 2692.87 800.218 2627.6 800.218C2527.75 800.218 2466.08 713.229 2474.7 593.102C2483.32 456.876 2561 316.037 2699.88 316.037ZM2648.15 700.614C2714.47 700.614 2767.71 608.824 2767.71 499.805C2767.71 447.085 2744.21 411.593 2708.5 411.593C2640.76 411.593 2584.02 502.253 2584.02 607.6C2584.4 667.569 2610.26 700.614 2648.53 700.614H2648.15Z"
      fill="white"
    />
  </g>
  <defs>
    <clipPath id="clip0_3_768">
      <rect width="3021.97" height="1024" fill="white" />
    </clipPath>
  </defs>
</svg>